<svg id="visual" viewBox="0 0 900 600" width="900" height="600" xmlns="http://www.w3.org/2000/svg" xmlns:xlink="http://www.w3.org/1999/xlink" version="1.1"><rect x="0" y="0" width="900" height="600" fill="#171717"></rect><g fill="#c2ad4d"><circle r="14" cx="795" cy="35"></circle><circle r="1" cx="640" cy="227"></circle><circle r="5" cx="195" cy="76"></circle><circle r="5" cx="76" cy="203"></circle><circle r="12" cx="783" cy="330"></circle><circle r="12" cx="32" cy="78"></circle><circle r="4" cx="825" cy="233"></circle><circle r="5" cx="833" cy="338"></circle><circle r="9" cx="117" cy="577"></circle><circle r="12" cx="146" cy="536"></circle><circle r="5" cx="388" cy="583"></circle><circle r="7" cx="385" cy="49"></circle><circle r="0" cx="478" cy="314"></circle><circle r="3" cx="234" cy="155"></circle><circle r="7" cx="2" cy="441"></circle><circle r="6" cx="176" cy="471"></circle><circle r="4" cx="85" cy="42"></circle><circle r="9" cx="106" cy="83"></circle><circle r="4" cx="611" cy="25"></circle><circle r="4" cx="515" cy="308"></circle></g></svg>